<svg xmlns="http://www.w3.org/2000/svg" version="1.1" xmlns:xlink="http://www.w3.org/1999/xlink" xmlns:svgjs="http://svgjs.dev/svgjs" width="1500" height="1518" viewBox="0 0 1500 1518"><g transform="matrix(1,0,0,1,1.325901639344238,0.6145748987853494)"><svg viewBox="0 0 244 247" data-background-color="#ffffff" preserveAspectRatio="xMidYMid meet" height="1518" width="1500" xmlns="http://www.w3.org/2000/svg" xmlns:xlink="http://www.w3.org/1999/xlink"><g id="tight-bounds" transform="matrix(1,0,0,1,-0.21567999999999188,-0.09999999999999432)"><svg viewBox="0 0 244.43135999999998 247.2" height="247.2" width="244.43135999999998"><g><svg></svg></g><g><svg viewBox="0 0 244.43135999999998 247.2" height="247.2" width="244.43135999999998"><g transform="matrix(1,0,0,1,0,50.11384612599019)"><svg viewBox="0 0 244.43135999999998 146.9723077480196" height="146.9723077480196" width="244.43135999999998"><g><svg viewBox="0 0 244.43135999999998 146.9723077480196" height="146.9723077480196" width="244.43135999999998"><g><svg viewBox="0 0 244.43135999999998 146.9723077480196" height="146.9723077480196" width="244.43135999999998"><g id="textblocktransform"><svg viewBox="0 0 244.43135999999998 146.9723077480196" height="146.9723077480196" width="244.43135999999998" id="textblock"><g><svg viewBox="0 0 244.43135999999998 146.9723077480196" height="146.9723077480196" width="244.43135999999998"><g transform="matrix(1,0,0,1,0,0)"><svg width="244.43135999999998" viewBox="4.7799999999999985 -36.7 132.55 76.55000000000001" height="146.9723077480196" data-palette-color="#010c80"><svg></svg><svg></svg><g class="wordmark-text-0" data-fill-palette-color="primary" id="text-0"><path d="M20.88 0.15v0c-1.867 0-3.74-0.193-5.62-0.58-1.887-0.38-3.62-0.947-5.2-1.7-1.587-0.747-2.863-1.663-3.83-2.75-0.967-1.08-1.45-2.337-1.45-3.77v0c0-1.833 0.583-3.3 1.75-4.4 1.167-1.1 2.533-1.617 4.1-1.55v0c1.233 0.033 2.467 0.29 3.7 0.77 1.233 0.487 2.493 0.963 3.78 1.43 1.28 0.467 2.57 0.7 3.87 0.7v0c1.3 0 2.2-0.167 2.7-0.5 0.5-0.333 0.75-0.783 0.75-1.35v0c0-0.667-0.35-1.217-1.05-1.65-0.7-0.433-1.583-0.767-2.65-1v0l-2.45-0.6c-2.533-0.6-4.8-1.273-6.8-2.02-2-0.753-3.573-1.757-4.72-3.01-1.153-1.247-1.73-2.92-1.73-5.02v0c0-2.3 0.633-4.177 1.9-5.63 1.267-1.447 2.983-2.503 5.15-3.17 2.167-0.667 4.583-1 7.25-1v0c2.733 0 5.133 0.283 7.2 0.85 2.067 0.567 3.677 1.383 4.83 2.45 1.147 1.067 1.72 2.367 1.72 3.9v0c0 1.633-0.44 2.907-1.32 3.82-0.887 0.92-2.063 1.38-3.53 1.38v0c-0.967 0-1.973-0.167-3.02-0.5-1.053-0.333-2.153-0.66-3.3-0.98-1.153-0.313-2.38-0.47-3.68-0.47v0c-1.167 0-2.05 0.173-2.65 0.52-0.6 0.353-0.9 0.813-0.9 1.38v0c0 0.7 0.4 1.217 1.2 1.55 0.8 0.333 2.117 0.733 3.95 1.2v0l2.8 0.65c2.3 0.567 4.317 1.25 6.05 2.05 1.733 0.8 3.083 1.85 4.05 3.15 0.967 1.3 1.45 3 1.45 5.1v0c0 2.533-0.6 4.593-1.8 6.18-1.2 1.58-2.867 2.737-5 3.47-2.133 0.733-4.633 1.1-7.5 1.1zM54.88 0.1v0c-3.267 0-6.207-0.677-8.82-2.03-2.62-1.347-4.68-3.353-6.18-6.02-1.5-2.667-2.25-5.95-2.25-9.85v0c0-3.9 0.76-7.267 2.28-10.1 1.513-2.833 3.597-5.01 6.25-6.53 2.647-1.513 5.67-2.27 9.07-2.27v0c3.933 0 6.95 0.55 9.05 1.65 2.1 1.1 3.15 2.733 3.15 4.9v0c0 1.667-0.45 3.04-1.35 4.12-0.9 1.087-2.133 1.63-3.7 1.63v0c-1.333 0-2.623-0.177-3.87-0.53-1.253-0.347-2.713-0.52-4.38-0.52v0c-2.133 0-3.817 0.617-5.05 1.85-1.233 1.233-1.85 2.85-1.85 4.85v0c0 1.967 0.617 3.607 1.85 4.92 1.233 1.32 2.917 1.98 5.05 1.98v0c1.133 0 2.177-0.093 3.13-0.28 0.947-0.18 1.88-0.37 2.8-0.57 0.913-0.2 1.903-0.3 2.97-0.3v0c1.767 0 3.067 0.573 3.9 1.72 0.833 1.153 1.25 2.58 1.25 4.28v0c0 1.7-0.617 3.073-1.85 4.12-1.233 1.053-2.857 1.813-4.87 2.28-2.02 0.467-4.213 0.7-6.58 0.7zM74.83 0v0c-2.233-0.333-3.683-1.36-4.35-3.08-0.667-1.713-0.533-3.887 0.4-6.52v0l6.6-18.75c0.6-1.733 1.293-3.217 2.08-4.45 0.78-1.233 1.763-2.183 2.95-2.85 1.18-0.667 2.653-1 4.42-1v0c2.667 0 4.677 0.733 6.03 2.2 1.347 1.467 2.47 3.5 3.37 6.1v0l6.55 18.75c0.933 2.633 1.11 4.807 0.53 6.52-0.587 1.72-2.013 2.747-4.28 3.08v0c-1.833 0.233-3.423 0.017-4.77-0.65-1.353-0.667-2.163-1.75-2.43-3.25v0c-0.2-1-0.223-1.833-0.07-2.5 0.147-0.667 0.287-1.2 0.42-1.6v0c0.1-0.333 0.11-0.657 0.03-0.97-0.087-0.32-0.347-0.48-0.78-0.48v0h-9.3c-0.433 0-0.69 0.16-0.77 0.48-0.087 0.313-0.063 0.637 0.07 0.97v0c0.133 0.4 0.267 0.933 0.4 1.6 0.133 0.667 0.117 1.5-0.05 2.5v0c-0.267 1.5-1.05 2.583-2.35 3.25-1.3 0.667-2.867 0.883-4.7 0.65zM83.28-16.45h7.3l-2.6-8.15c-0.067-0.333-0.173-0.593-0.32-0.78-0.153-0.18-0.397-0.27-0.73-0.27v0c-0.333 0-0.573 0.09-0.72 0.27-0.153 0.187-0.28 0.447-0.38 0.78v0zM111.33 0v0c-1.667 0-2.933-0.517-3.8-1.55-0.867-1.033-1.3-2.417-1.3-4.15v0-23.45c0-1.733 0.327-3.143 0.98-4.23 0.647-1.08 1.497-1.87 2.55-2.37 1.047-0.5 2.187-0.75 3.42-0.75v0c1.833 0 3.383 0.483 4.65 1.45 1.267 0.967 2.25 2.667 2.95 5.1v0l5.4 18.45h0.8v-19.2c0-1.767 0.45-3.16 1.35-4.18 0.9-1.013 2.183-1.52 3.85-1.52v0c1.733 0 3.027 0.507 3.88 1.52 0.847 1.02 1.27 2.413 1.27 4.18v0 22.6c0 2.8-0.617 4.867-1.85 6.2-1.233 1.333-2.967 2-5.2 2v0c-2.267 0-4.033-0.6-5.3-1.8-1.267-1.2-2.233-2.967-2.9-5.3v0l-3.55-12.15c-0.067-0.333-0.19-0.643-0.37-0.93-0.187-0.28-0.43-0.42-0.73-0.42v0c-0.367 0-0.617 0.14-0.75 0.42-0.133 0.287-0.2 0.597-0.2 0.93v0 13.45c0 1.733-0.433 3.117-1.3 4.15-0.867 1.033-2.15 1.55-3.85 1.55z" fill="#010c80" fill-rule="nonzero" stroke="none" stroke-width="1" stroke-linecap="butt" stroke-linejoin="miter" stroke-miterlimit="10" stroke-dasharray="" stroke-dashoffset="0" font-family="none" font-weight="none" font-size="none" text-anchor="none" style="mix-blend-mode: normal" data-fill-palette-color="primary" opacity="1"></path><path d="M41.78 39.85v0c-1.733 0-3.017-0.517-3.85-1.55-0.833-1.033-1.25-2.417-1.25-4.15v0-23.3c0-2.533 0.693-4.4 2.08-5.6 1.38-1.2 3.037-1.8 4.97-1.8v0c1.833 0 3.393 0.6 4.68 1.8 1.28 1.2 2.22 3.1 2.82 5.7v0l3.9 16.95h1.3l3.9-16.95c0.6-2.6 1.56-4.5 2.88-5.7 1.313-1.2 2.887-1.8 4.72-1.8v0c1.933 0 3.593 0.6 4.98 1.8 1.38 1.2 2.07 3.067 2.07 5.6v0 23.3c0 1.733-0.423 3.117-1.27 4.15-0.853 1.033-2.147 1.55-3.88 1.55v0c-1.667 0-2.95-0.517-3.85-1.55-0.9-1.033-1.35-2.417-1.35-4.15v0-13.45c0-0.333-0.04-0.643-0.12-0.93-0.087-0.28-0.313-0.42-0.68-0.42v0c-0.3 0-0.517 0.14-0.65 0.42-0.133 0.287-0.233 0.597-0.3 0.93v0l-1.9 12.6c-0.233 1.367-0.507 2.54-0.82 3.52-0.32 0.987-0.813 1.737-1.48 2.25-0.667 0.52-1.633 0.78-2.9 0.78v0c-1.233 0-2.193-0.26-2.88-0.78-0.68-0.513-1.18-1.263-1.5-2.25-0.313-0.98-0.57-2.153-0.77-3.52v0l-1.95-12.6c-0.033-0.333-0.117-0.643-0.25-0.93-0.133-0.28-0.367-0.42-0.7-0.42v0c-0.333 0-0.55 0.14-0.65 0.42-0.1 0.287-0.15 0.597-0.15 0.93v0 13.45c0 1.733-0.44 3.117-1.32 4.15-0.887 1.033-2.163 1.55-3.83 1.55zM99.33 39.75h-8.95c-1.633 0-3.19-0.15-4.67-0.45-1.487-0.3-2.787-0.873-3.9-1.72-1.12-0.853-2.003-2.09-2.65-3.71-0.653-1.613-0.98-3.737-0.98-6.37v0c0-2.367 0.317-4.4 0.95-6.1 0.633-1.7 1.393-3.05 2.28-4.05 0.88-1 1.687-1.617 2.42-1.85v0l-0.25-0.95h-0.85c-1.533 0-2.743-0.493-3.63-1.48-0.88-0.98-1.337-2.32-1.37-4.02v0c-0.033-1.667 0.41-3 1.33-4 0.913-1 2.137-1.5 3.67-1.5v0h17.95c3.567 0 5.35 1.667 5.35 5v0c0 1.5-0.433 2.7-1.3 3.6-0.867 0.9-2.217 1.35-4.05 1.35v0h-10.35c-1.233 0-1.85 0.717-1.85 2.15v0 3.75c1.667-0.367 3.41-0.8 5.23-1.3 1.813-0.5 3.537-0.75 5.17-0.75v0c1.567 0 2.743 0.34 3.53 1.02 0.78 0.687 1.17 1.613 1.17 2.78v0c0 1.2-0.39 2.14-1.17 2.82-0.787 0.687-1.963 1.047-3.53 1.08v0c-1.633 0.033-3.367-0.2-5.2-0.7-1.833-0.5-3.583-0.933-5.25-1.3v0 6.55c0 0.633 0.177 1.073 0.53 1.32 0.347 0.253 0.903 0.163 1.67-0.27v0c1.667-0.967 3.3-1.743 4.9-2.33 1.6-0.58 3.167-0.87 4.7-0.87v0c2.167 0 3.81 0.567 4.93 1.7 1.113 1.133 1.67 2.617 1.67 4.45v0c0 1.967-0.593 3.483-1.78 4.55-1.18 1.067-3.087 1.6-5.72 1.6z" fill="#4b91f1" fill-rule="nonzero" stroke="none" stroke-width="1" stroke-linecap="butt" stroke-linejoin="miter" stroke-miterlimit="10" stroke-dasharray="" stroke-dashoffset="0" font-family="none" font-weight="none" font-size="none" text-anchor="none" style="mix-blend-mode: normal" data-fill-palette-color="secondary" opacity="1"></path></g></svg></g></svg></g></svg></g></svg></g><g></g></svg></g></svg></g><path d="M0 44.114L0 1 244.431 1 244.431 44.114 238.303 44.114 238.303 7.128 6.128 7.128 6.128 44.114 0 44.114M0 203.086L0 246.2 244.431 246.2 244.431 203.086 238.303 203.086 238.303 240.072 6.128 240.072 6.128 203.086 0 203.086" fill="#1ebbd7" stroke="transparent" data-fill-palette-color="tertiary"></path></svg></g><defs></defs></svg><rect width="244.43135999999998" height="247.2" fill="none" stroke="none" visibility="hidden"></rect></g></svg></g></svg>